# xmcd
#
# Track frame offsets:
#	150
#	15457
#	28289
#	43833
#	59637
#	74035
#	98528
#	113647
#	129330
#	141349
#
# Disc length: 2081 seconds
#
# Revision: 0
# Processed by: cddbd v1.5.1PL0 Copyright (c) Steve Scherf et al.
# Submitted via: dBpowerAMP V4.0
#
DISCID=90081f0a
DTITLE=Leavin' Bros. - No Boots Tour 2004
DYEAR=2004
DGENRE=Country
TTITLE0=Good Clean Fun
TTITLE1=Caroline
TTITLE2=Rhonda Voo
TTITLE3=Travelin' Clean
TTITLE4=Georgia Girl
TTITLE5=Summer Nights
TTITLE6=Amnesia
TTITLE7=Loretta Lou Anne
TTITLE8=The Farm
TTITLE9=Travelin' Band
EXTD=
EXTT0=
EXTT1=
EXTT2=
EXTT3=
EXTT4=
EXTT5=
EXTT6=
EXTT7=
EXTT8=
EXTT9=
PLAYORDER=
